<?xml version="1.0" encoding="UTF-8"?>
<svg id="Calque_2" xmlns="http://www.w3.org/2000/svg" viewBox="0 0 1218.99 237.16"><g id="HEADER"><g><polygon points="597.58 183.99 612.1 183.99 633.32 125.91 618.8 125.91 597.58 183.99"/><polygon points="163.23 24.23 148.71 24.23 114.23 118.62 128.75 118.62 163.23 24.23"/><polygon points="426.57 125.87 412.04 125.87 402.75 151.28 417.26 151.28 426.57 125.87"/><polygon points="190.55 183.95 205.07 183.95 214.37 158.55 199.85 158.55 190.55 183.95"/><polygon points="934.31 183.99 948.83 183.99 958.12 158.59 943.62 158.59 934.31 183.99"/><path d="M1204.98,203.33l-1.93-.73,.68-1.96,.68-1.94,10.99-31.69h-20.24l1.04-2.84,1.03-2.86,13.43-36.84,8.32-22.79h-94.22l-4.08,11.15-3.22,8.86-.58,1.57-1.66-.19-4.11-.48-1.67-.2-.18-1.67c-1.27-11.22-10.29-19.04-21.94-19.04h-62.71l-4.08,11.15-3.22,8.86-.58,1.57-1.66-.19-4.11-.48-1.67-.2-.19-1.67c-1.27-11.22-10.29-19.04-21.94-19.04h-62.75l-4.04,11.22-2.62,7.26-.57,1.61-.58,1.59-1.68-.2-4.1-.48-1.67-.2-.19-1.68c-1.23-11.26-10.25-19.12-21.94-19.12h-62.7l-4.06,11.15-3.25,8.87-.57,1.58-1.67-.2-4.1-.49-1.68-.19-.19-1.68c-1.26-11.22-10.27-19.04-21.93-19.04h-79.86c-11.89,0-21.79,7.06-25.84,18.44l-.59,1.64-.57,1.59-1.68-.2-4.1-.49-1.67-.2-.2-1.67c-1.23-11.25-10.25-19.11-21.93-19.11h-43.57c-11.9,0-21.79,7.06-25.83,18.47l-2.84,7.78-.51,1.4-.5,1.39h-42.23l1.04-2.84,1.04-2.86,16.31-44.67,.51-1.4,.5-1.4h36.3l4.06-11.17c14.64-40.23,14.64-40.82,14.64-44.61,0-12.39-9.45-21.74-21.97-21.74h-43.56c-11.95,0-21.85,7.12-25.88,18.58l-53.14,145.56-.51,1.39-.5,1.4h-12.18l1.09-2.87,1.07-2.86,3.3-8.78h-.39l1.01-2.84,1.02-2.85c7.04-19.54,7.04-20.13,7.04-23.4,0-12.39-9.5-21.72-22.08-21.72h-43.56c-11.9,0-21.8,7.06-25.84,18.45l-.6,1.65-.57,1.58-1.68-.2-4.1-.49-1.66-.2-.18-1.67c-1.25-11.26-10.27-19.11-21.95-19.11h-43.56c-11.9,0-21.8,7.06-25.84,18.45l-.59,1.65-.57,1.58-1.67-.2-4.1-.49-1.67-.2-.18-1.67c-1.24-11.26-10.27-19.11-21.95-19.11h-68.58l1.04-2.86,1.03-2.85c24.85-68.47,25.43-70.39,25.43-74.2,0-12.39-9.44-21.74-21.96-21.74H101.1l10.9,3.45,2.13,.67,2.13,.67-.78,2.09-.78,2.08L52.96,176.31l-.26,.72-.27,.72-.67,.38-.64,.37L0,208.32l779.63-.08,2.83,.08,2.91,.09-.98,2.75-1.01,2.82-8.24,23.18h57.75l4.08-11.16,5.44-14.97,.51-1.39,.51-1.4h242.49l-.97,2.81-.97,2.82-.27,.8-7.72,22.5h74.47c11.97,0,21.89-7.12,25.91-18.63l2.75-7.51,.51-1.39,.51-1.4h37.84l-11.06-4.18-1.94-.73Zm-799.62-19.38l5.44-14.52h21.77l-5.45,14.52h20.3l-2.6,7.26H102.31l23.83-65.34h-14.53l-23.82,65.34H45.83l22.8-7.26L129.54,16.97h50.82c3.33,0,4.99,1.58,4.99,4.77,0,.76-9.75,28.02-29.27,81.79-1.97,5.06-5.36,9.45-10.21,13.15-4.84,3.71-9.92,5.56-15.2,5.56l11.68,18.71-15.65,42.99h42.07l9.3-25.4c1.67-4.84,4.95-7.26,9.87-7.26h29.04l9.3-25.41h-36.29l2.61-7.26h50.82c3.41,0,5.11,1.59,5.11,4.76,0,.68-7.22,20.87-21.66,60.57h42.06l21.21-58.08c1.66-4.84,4.95-7.26,9.86-7.26h43.56c3.41,0,5.11,1.59,5.11,4.76,0,.68-1.92,6.35-5.78,17.02h-21.78l5.32-14.52h-14.51l-21.21,58.08h14.53l5.44-14.52h21.77l-5.44,14.52h42.06l21.21-58.08c1.66-4.84,4.95-7.26,9.87-7.26h43.56c3.41,0,5.11,1.59,5.11,4.76,0,.68-3.25,9.98-9.75,27.9-1.66,4.84-4.96,7.26-9.87,7.26h-29.04l-9.3,25.4h14.53Zm785.84,.04l-2.61,7.26h-20.3l-7.94,21.67c-1.67,4.83-4.95,7.25-9.88,7.25h-50.69l2.49-7.25h36.3l7.93-21.67h-100.14l23.82-65.34h-14.51l-23.83,65.34h-200.27l-10.56,28.92h-21.66l10.44-28.92h-63.85l23.83-65.34h-14.53l-23.82,65.34h-21.78l23.83-65.34h-14.53l-23.82,65.34h-242.26l2.61-7.26h20.19l58.3-159.72c1.66-4.84,4.95-7.26,9.87-7.26h43.56c3.33,0,5,1.59,5,4.76,0,.91-4.54,13.84-13.62,38.8h-21.78l13.28-36.3h-14.52l-58.3,159.72h14.52l13.27-36.3h21.77l-13.26,36.3h42.06l21.22-58.08c1.66-4.84,4.95-7.26,9.86-7.26h43.57c3.41,0,5.11,1.59,5.11,4.76,0,.68-7.23,20.87-21.67,60.58h42.06l21.21-58.08c1.66-4.84,4.95-7.26,9.87-7.26h79.86c3.4,0,5.1,1.59,5.1,4.76,0,.68-7.23,20.87-21.66,60.58h42.06l23.83-65.34h50.82c3.4,0,5.11,1.59,5.11,4.76,0,.99-.16,1.82-.45,2.5l-21.22,58.08h42.07l9.29-25.4c1.66-4.84,4.95-7.26,9.87-7.26h29.04l9.3-25.41h-36.31l2.62-7.26h50.81c3.41,0,5.11,1.59,5.11,4.76,0,.68-7.22,20.87-21.66,60.58h42.07l23.82-65.34h50.83c3.41,0,5.11,1.59,5.11,4.76,0,.99-.16,1.82-.46,2.5l-21.2,58.08h42.05l23.83-65.34h21.77l-23.82,65.34h14.52l23.82-65.34h21.78l-23.83,65.34h20.3Z"/><polygon points="834.17 183.99 848.69 183.99 869.91 125.91 855.38 125.91 834.17 183.99"/></g></g></svg>